<?xml version="1.0" standalone="no"?><!DOCTYPE svg PUBLIC "-//W3C//DTD SVG 1.1//EN"
  "http://www.w3.org/Graphics/SVG/1.1/DTD/svg11.dtd">
<svg t="1506595849668" class="icon" style="" viewBox="0 0 1024 1024" version="1.1" xmlns="http://www.w3.org/2000/svg"
     p-id="1989" xmlns:xlink="http://www.w3.org/1999/xlink" width="100" height="100">
  <defs>
    <style type="text/css"></style>
  </defs>
  <path d="M509.673 512.161m-446.717 0a446.717 446.717 0 1 0 893.434 0 446.717 446.717 0 1 0-893.434 0Z" fill="#E0995E"
        p-id="1990"></path>
  <path
    d="M565.513 386.522V260.883H328.195c-23.13 0-41.88 18.75-41.88 41.88v474.636c0 23.13 18.75 41.88 41.88 41.88h362.957c23.13 0 41.88-18.75 41.88-41.88V428.402H607.393c-23.13 0-41.88-18.75-41.88-41.88z"
    fill="#231F20" p-id="1991"></path>
  <path
    d="M565.513 358.602V232.963H328.195c-23.13 0-41.88 18.75-41.88 41.88v474.636c0 23.13 18.75 41.88 41.88 41.88h362.957c23.13 0 41.88-18.75 41.88-41.88V400.482H607.393c-23.13 0-41.88-18.75-41.88-41.88z"
    fill="#E0E0D1" p-id="1992"></path>
  <path d="M579.697 390.621l153.335 135.5V400.482z" fill="#231F20" p-id="1993"></path>
  <path d="M565.513 232.963v125.639c0 23.13 18.75 41.88 41.88 41.88h125.639L565.513 232.963z" fill="#FFFFFF"
        p-id="1994"></path>
  <path d="M370.074 372.562h134.364v27.92H370.074zM370.074 512.161h279.198v27.92H370.074z" fill="#231F20"
        p-id="1995"></path>
  <path d="M370.074 442.362h279.198v27.92H370.074z" fill="#231F20" p-id="1996"></path>
  <path d="M370.074 581.961h279.198v27.92H370.074z" fill="#231F20" p-id="1997"></path>
  <path d="M370.074 651.76h279.198v27.92H370.074z" fill="#231F20" p-id="1998"></path>
</svg>
