<?xml version="1.0" standalone="no"?><!DOCTYPE svg PUBLIC "-//W3C//DTD SVG 1.1//EN" "http://www.w3.org/Graphics/SVG/1.1/DTD/svg11.dtd"><svg t="1506666927615" class="icon" style="" viewBox="0 0 1024 1024" version="1.1" xmlns="http://www.w3.org/2000/svg" p-id="1843" xmlns:xlink="http://www.w3.org/1999/xlink" width="100" height="100"><defs><style type="text/css"></style></defs><path d="M512.275 510.757m-447.362 0a447.362 447.362 0 1 0 894.724 0 447.362 447.362 0 1 0-894.724 0Z" fill="#E0E0D1" p-id="1844"></path><path d="M536.771 812.231c-13.529 8.117-35.463 8.117-48.992 0L242.82 665.256c-13.529-8.117-13.529-21.278 0-29.395l244.959-146.975c13.529-8.117 35.463-8.117 48.992 0L781.73 635.861c13.529 8.117 13.529 21.278 0 29.395L536.771 812.231z" fill="#231F20" p-id="1845"></path><path d="M536.771 784.271c-13.529 8.117-35.463 8.117-48.992 0L242.82 637.296c-13.529-8.117-13.529-21.278 0-29.395l244.959-146.975c13.529-8.117 35.463-8.117 48.992 0L781.73 607.9c13.529 8.117 13.529 21.278 0 29.395L536.771 784.271z" fill="#C75C5C" p-id="1846"></path><path d="M536.771 700.391c-13.529 8.117-35.463 8.117-48.992 0L242.82 553.415c-13.529-8.117-13.529-21.278 0-29.395l244.959-146.975c13.529-8.117 35.463-8.117 48.992 0L781.73 524.02c13.529 8.117 13.529 21.278 0 29.395L536.771 700.391z" fill="#231F20" p-id="1847"></path><path d="M536.771 672.43c-13.529 8.117-35.463 8.117-48.992 0L242.82 525.455c-13.529-8.117-13.529-21.278 0-29.395l244.959-146.975c13.529-8.117 35.463-8.117 48.992 0L781.73 496.06c13.529 8.117 13.529 21.278 0 29.395L536.771 672.43z" fill="#76C2AF" p-id="1848"></path><path d="M536.771 588.55c-13.529 8.117-35.463 8.117-48.992 0L242.82 441.574c-13.529-8.117-13.529-21.278 0-29.395l244.959-146.975c13.529-8.117 35.463-8.117 48.992 0L781.73 412.179c13.529 8.117 13.529 21.278 0 29.395L536.771 588.55z" fill="#231F20" p-id="1849"></path><path d="M536.771 560.59c-13.529 8.117-35.463 8.117-48.992 0L242.82 413.614c-13.529-8.117-13.529-21.278 0-29.395l244.959-146.975c13.529-8.117 35.463-8.117 48.992 0L781.73 384.219c13.529 8.117 13.529 21.278 0 29.395L536.771 560.59z" fill="#4F5D73" p-id="1850"></path></svg>