<?xml version="1.0" standalone="no"?><!DOCTYPE svg PUBLIC "-//W3C//DTD SVG 1.1//EN" "http://www.w3.org/Graphics/SVG/1.1/DTD/svg11.dtd"><svg t="1506595839588" class="icon" style="" viewBox="0 0 1024 1024" version="1.1" xmlns="http://www.w3.org/2000/svg" p-id="1843" xmlns:xlink="http://www.w3.org/1999/xlink" width="100" height="100"><defs><style type="text/css"></style></defs><path d="M512.324 508.576m-448.561 0a448.561 448.561 0 1 0 897.122 0 448.561 448.561 0 1 0-897.122 0Z" fill="#77B3D4" p-id="1844"></path><path d="M792.675 732.856c0 30.967-25.103 56.07-56.07 56.07H288.044c-30.967 0-56.07-25.103-56.07-56.07V312.33c0-30.967 25.103-56.07 56.07-56.07h448.561c30.967 0 56.07 25.103 56.07 56.07v420.526z" fill="#231F20" p-id="1845"></path><path d="M231.974 361.392v343.43c0 30.966 25.103 56.07 56.07 56.07h448.561c30.967 0 56.07-25.104 56.07-56.07v-343.43H231.974z" fill="#FFFFFF" p-id="1846"></path><path d="M792.675 312.33c0-30.967-25.103-56.07-56.07-56.07H288.044c-30.967 0-56.07 25.103-56.07 56.07v84.105h560.701V312.33z" fill="#231F20" p-id="1847"></path><path d="M792.675 284.295c0-30.967-25.103-56.07-56.07-56.07H288.044c-30.967 0-56.07 25.103-56.07 56.07V368.4h560.701v-84.105z" fill="#E0E0D1" p-id="1848"></path><path d="M386.166 298.313m-28.035 0a28.035 28.035 0 1 0 56.07 0 28.035 28.035 0 1 0-56.07 0Z" fill="#E0995E" p-id="1849"></path><path d="M470.272 298.313m-28.035 0a28.035 28.035 0 1 0 56.07 0 28.035 28.035 0 1 0-56.07 0Z" fill="#76C2AF" p-id="1850"></path><path d="M302.061 298.313m-28.035 0a28.035 28.035 0 1 0 56.07 0 28.035 28.035 0 1 0-56.07 0Z" fill="#C75C5C" p-id="1851"></path><path d="M288.044 452.506h168.21v252.316h-168.21z" fill="#4F5D73" p-id="1852"></path><path d="M512.324 452.506h224.281v28.035H512.324zM512.324 508.576h224.281v28.035H512.324zM512.324 564.646h224.281v28.035H512.324zM512.324 620.716h224.281v28.035H512.324zM512.324 676.786h224.281v28.035H512.324z" fill="#E0E0D1" p-id="1853"></path></svg>