<?xml version="1.0" standalone="no"?><!DOCTYPE svg PUBLIC "-//W3C//DTD SVG 1.1//EN"
  "http://www.w3.org/Graphics/SVG/1.1/DTD/svg11.dtd">
<svg t="1506495797172" class="icon" style="" viewBox="0 0 1024 1024" version="1.1" xmlns="http://www.w3.org/2000/svg"
     p-id="1457" xmlns:xlink="http://www.w3.org/1999/xlink" width="100" height="100">
  <defs>
    <style type="text/css"></style>
  </defs>
  <path
    d="M832.2 64.4H192c-35.2 0-64 28.8-64 64v767.1c0 35.2 28.8 64 64 64h640.1c35.2 0 64-28.8 64-64V128.4c0.1-35.2-28.7-64-63.9-64zM257.9 223.8c0-17.6 14.4-32 32-32h254.2c17.6 0 32 14.4 32 32v0.2c0 17.6-14.4 32-32 32H289.9c-17.6 0-32-14.4-32-32v-0.2z m511.2 544.1c0 17.6-14.4 32-32 32H289.9c-17.6 0-32-14.4-32-32v-0.4c0-17.6 14.4-32 32-32h447.2c17.6 0 32 14.4 32 32v0.4z m0-159.8c0 17.6-14.4 32-32 32H289.9c-17.6 0-32-14.4-32-32v-0.4c0-17.6 14.4-32 32-32h447.2c17.6 0 32 14.4 32 32v0.4z m0-160.1c0 17.6-14.4 32-32 32H289.9c-17.6 0-32-14.4-32-32v-0.4c0-17.6 14.4-32 32-32h447.2c17.6 0 32 14.4 32 32v0.4z"
    p-id="1458" fill="#1296db"></path>
</svg>
