<?xml version="1.0" standalone="no"?><!DOCTYPE svg PUBLIC "-//W3C//DTD SVG 1.1//EN" "http://www.w3.org/Graphics/SVG/1.1/DTD/svg11.dtd"><svg t="1506562462234" class="icon" style="" viewBox="0 0 1024 1024" version="1.1" xmlns="http://www.w3.org/2000/svg" p-id="4311" xmlns:xlink="http://www.w3.org/1999/xlink" width="100" height="100"><defs><style type="text/css"></style></defs><path d="M887.287 122.88c40.016 0 72.36 32.935 72.36 73.883v466.789l24.196-24.576h-847.13c-40.016 0-72.36-32.935-72.36-73.883V98.304L40.158 122.88h847.13zM15.96 73.728V565.094c0 68.065 53.982 123.034 120.753 123.034h871.327V196.762c0-68.065-53.982-123.034-120.753-123.034H15.96zM195.578 964.787c-9.045 9.99-8.403 25.538 1.434 34.725 9.837 9.187 25.144 8.535 34.19-1.456L450.407 755.93c9.045-9.991 8.403-25.538-1.434-34.725-9.837-9.187-25.144-8.535-34.19 1.456L195.578 964.787zM798.392 998.056c9.045 9.99 24.352 10.643 34.19 1.456 9.837-9.187 10.479-24.734 1.433-34.725L614.81 722.66c-9.045-9.991-24.352-10.643-34.19-1.456-9.837 9.187-10.478 24.734-1.433 34.725l219.205 242.126z" fill="#1296db" p-id="4312"></path><path d="M441.77 103.616c0 10.64 10.833 19.264 24.197 19.264 13.363 0 24.197-8.625 24.197-19.264V19.264C490.164 8.624 479.33 0 465.967 0c-13.364 0-24.198 8.625-24.198 19.264v84.352zM514.797 307.059c13.363 0 24.197-11.003 24.197-24.576s-10.834-24.576-24.197-24.576H158.589c-13.364 0-24.197 11.003-24.197 24.576s10.833 24.576 24.197 24.576h356.208zM514.797 465.25c13.363 0 24.197-11.004 24.197-24.577 0-13.573-10.834-24.576-24.197-24.576H158.589c-13.364 0-24.197 11.003-24.197 24.576s10.833 24.576 24.197 24.576h356.208zM680.303 552.391c48.596-38.17 77.896-95.705 77.896-174.132V216.842c0-13.573-10.834-24.576-24.197-24.576-13.364 0-24.197 11.003-24.197 24.576v161.417c0 62.813-22.077 106.164-59.108 135.25-13.01 10.22-27.03 17.928-41.018 23.422-8.206 3.223-14.33 4.94-17.274 5.519-13.12 2.576-21.7 15.468-19.164 28.794 2.537 13.326 15.23 22.04 28.35 19.464 20.529-4.03 49.594-15.446 78.712-38.317z" fill="#1296db" p-id="4313"></path><path d="M752.643 232.51c8.52-10.456 7.081-25.948-3.214-34.602-10.296-8.653-25.549-7.191-34.069 3.265L605.758 335.687c-8.52 10.457-7.081 25.949 3.214 34.602 10.296 8.654 25.549 7.192 34.069-3.264L752.643 232.51z" fill="#1296db" p-id="4314"></path><path d="M752.643 201.173c-8.52-10.456-23.773-11.918-34.068-3.265-10.296 8.654-11.735 24.146-3.215 34.602l109.603 134.515c8.52 10.456 23.773 11.918 34.068 3.264 10.296-8.653 11.735-24.145 3.215-34.602L752.643 201.173z" fill="#1296db" p-id="4315"></path></svg>