<?xml version="1.0" standalone="no"?><!DOCTYPE svg PUBLIC "-//W3C//DTD SVG 1.1//EN" "http://www.w3.org/Graphics/SVG/1.1/DTD/svg11.dtd"><svg t="1506503403794" class="icon" style="" viewBox="0 0 1024 1024" version="1.1" xmlns="http://www.w3.org/2000/svg" p-id="3957" xmlns:xlink="http://www.w3.org/1999/xlink" width="100" height="100"><defs><style type="text/css"></style></defs><path d="M730.352 102.5c-85.901 0-165.783 83.523-218.346 146.213-52.551-62.707-132.408-146.213-218.358-146.213-154.863 0-280.848 121.533-280.848 270.913 0 89.123 45.126 151.647 81.393 201.881 105.421 145.914 370.486 327.487 381.713 335.144 10.812 7.369 23.466 11.062 36.075 11.062 12.647 0 25.277-3.695 36.075-11.062 11.241-7.657 276.33-189.23 381.713-335.144 36.29-50.234 81.43-112.758 81.43-201.881-0.002-149.381-125.986-270.913-280.848-270.913z" fill="#F98585" p-id="3958"></path></svg>