<?xml version="1.0" standalone="no"?><!DOCTYPE svg PUBLIC "-//W3C//DTD SVG 1.1//EN" "http://www.w3.org/Graphics/SVG/1.1/DTD/svg11.dtd"><svg t="1506502934839" class="icon" style="" viewBox="0 0 1024 1024" version="1.1" xmlns="http://www.w3.org/2000/svg" p-id="3085" xmlns:xlink="http://www.w3.org/1999/xlink" width="100" height="100"><defs><style type="text/css"></style></defs><path d="M864.501984 1.103124 159.52667 1.103124c-52.733129 0-95.827342 43.094494-95.827342 95.792717l0 830.207295c0 52.699246 43.094213 95.791693 95.827342 95.791693l704.975315 0c52.637958 0 95.796642-43.092447 95.796642-95.791693L960.298626 96.896864C960.298626 44.198641 917.138919 1.103124 864.501984 1.103124zM869.07021 934.988734 154.958443 934.988734 154.958443 89.010243l714.111767 0L869.07021 934.988734z" p-id="3086" fill="#1296db"></path><path d="M255.636456 575.032592l509.484099 0 0 63.86147-509.484099 0 0-63.86147Z" p-id="3087" fill="#1296db"></path><path d="M255.636456 702.755532l509.484099 0 0 63.862493-509.484099 0 0-63.862493Z" p-id="3088" fill="#1296db"></path><path d="M415.298207 367.073236c52.887655 0 95.796642-42.844807 95.796642-95.792717 0-52.948933-42.908987-95.792717-95.796642-95.792717-52.953149 0-95.796642 42.843784-95.796642 95.792717C319.501566 324.228429 362.345058 367.073236 415.298207 367.073236z" p-id="3089" fill="#1296db"></path><path d="M574.959959 447.307605c0-35.110659-43.159707-63.86147-95.796642-63.86147L351.43412 383.446136c-52.762806 0-95.797665 28.751834-95.797665 63.86147l0 63.862493 319.323503 0L574.959959 447.307605z" p-id="3090" fill="#1296db"></path></svg>