# This file uses centimeters as units for non-parametric coordinates.

mtllib suipian2.mtl
g default
v 0.000000 0.175097 0.096908
v -0.114899 0.175097 0.000000
v 0.114899 0.175097 -0.000000
v -0.000000 0.175097 -0.096908
v -0.000000 -0.175097 0.000000
vt 0.384707 0.575330
vt 0.445165 0.635788
vt 0.384707 0.696245
vt 0.324250 0.635788
vt 0.492989 0.740439
vt 0.521783 0.740439
vt 0.492989 0.855613
vt 0.345169 0.901455
vt 0.362396 0.901455
vt 0.379623 0.970365
vt 0.375762 0.245525
vt 0.391938 0.245525
vt 0.391938 0.310231
vt 0.414838 0.482195
vt 0.415002 0.482195
vt 0.414675 0.482848
vn -0.000000 1.000000 0.000000
vn -0.000000 1.000000 0.000000
vn -0.000000 1.000000 0.000000
vn -0.000000 1.000000 0.000000
vn 0.630766 -0.206955 -0.747866
vn 0.630766 -0.206955 -0.747867
vn 0.630766 -0.206955 -0.747866
vn -0.630766 -0.206955 0.747867
vn -0.630766 -0.206955 0.747867
vn -0.630766 -0.206955 0.747867
vn -0.630766 -0.206955 -0.747866
vn -0.630766 -0.206955 -0.747866
vn -0.630766 -0.206955 -0.747866
vn 0.630766 -0.206955 0.747866
vn 0.630766 -0.206955 0.747866
vn 0.630766 -0.206955 0.747866
s off
g suipian2
usemtl lambert7SG
f 1/1/1 3/2/2 4/3/3 2/4/4
f 4/5/5 3/6/6 5/7/7
f 1/8/8 2/9/9 5/10/10
f 2/11/11 4/12/12 5/13/13
f 3/14/14 1/15/15 5/16/16
